# Aspose.3D Wavefront OBJ Exporter
# Copyright 2004-2021 Aspose Pty Ltd.
# File created: 10/07/2021 00:52:06

mtllib material.lib

#
# object Cube
#

v -0.02499997 -0.02499997 -0.02499997
v -0.02499997 -0.02499997 0.02499997
v -0.02499997 0.02499997 -0.02499997
v -0.02499997 0.02499997 0.02499997
v 0.02499997 -0.02499997 -0.02499997
v 0.02499997 -0.02499997 0.02499997
v 0.02499997 0.02499997 -0.02499997
v 0.02499997 0.02499997 0.02499997
# 8 vertices

vn -1 0 0
vn 0 1 0
vn 1 0 0
vn 0 -1 0
vn 0 0 -1
vn 0 0 1
# 6 vertex normals

vt 0 0 0
vt 0 0 0
vt 0 0 0
vt 0 0 0
vt 0 0 0
vt 0 0 0
vt 0 0 0
vt 0 0 0
vt 0 0 0
vt 0 0 0
vt 0 0 0
vt 0 0 0
vt 0 0 0
vt 0 0 0
vt 0 0 0
vt 0.9999001 0.9998999 0
vt 9.998E-05 9.998E-05 0
vt 0.9999 9.998E-05 0
vt 0 0 0
vt 0 0 0
vt 0 0 0
vt 0 0 0
vt 0 0 0
vt 0 0 0
vt 0 0 0
vt 0 0 0
vt 0 0 0
vt 0 0 0
vt 0 0 0
vt 0 0 0
vt 0 0 0
vt 0 0 0
vt 0 0 0
vt 0.9999001 0.9998999 0
vt 0.000100055 0.9998999 0
vt 9.998E-05 9.998E-05 0
# 36 texture coords

g Cube
usemtl textured_face
s 1
f 4/1/1 1/2/1 2/3/1
f 8/4/2 3/5/2 4/6/2
f 6/7/3 7/8/3 8/9/3
f 2/10/4 5/11/4 6/12/4
f 3/13/5 5/14/5 1/15/5
f 8/16/6 2/17/6 6/18/6
f 4/19/1 3/20/1 1/21/1
f 8/22/2 7/23/2 3/24/2
f 6/25/3 5/26/3 7/27/3
f 2/28/4 1/29/4 5/30/4
f 3/31/5 7/32/5 5/33/5
f 8/34/6 4/35/6 2/36/6
#12 polygons

